<?xml version="1.0"?>
<svg width="546" height="531" xmlns="http://www.w3.org/2000/svg" xmlns:svg="http://www.w3.org/2000/svg">
 <title>ARIA Framework Logo</title>
 <style>path {
      fill: currentColor;
      stroke: currentColor;
    }
    
    @media (prefers-color-scheme: dark) {
      :root {
        color-scheme: dark;
      }
    }</style>
 <g class="layer">
  <title>Layer 1</title>
  <g id="svg_1" transform="translate(-747 -740)">
   <path d="m1065,803l0,63l38,0l-0.2,-53.1l-0.3,-53l-17.8,-10c-9.8,-5.4 -18.3,-9.9 -18.8,-9.9s-0.9,25.1 -0.9,63zm63,202.1c0,219.7 0.1,231.1 1.8,230.4c0.9,-0.3 10,-5.3 20.2,-11s43.5,-24.1 74,-41s58.4,-32.4 62,-34.4l6.5,-3.7l0.3,-140.2l0.2,-140.2l-3.7,-2.3c-2.1,-1.3 -8.3,-4.8 -13.8,-7.7c-10,-5.3 -36.1,-19.8 -69.5,-38.5c-22.7,-12.7 -77.1,-42.5 -77.6,-42.5c-0.2,0 -0.4,104 -0.4,231.1zm101.3,-59.1c3.8,8.5 9.7,22 13.2,30c3.4,8 10.4,23.9 15.5,35.5c12.7,28.8 27.6,63.5 28.4,66.2l0.7,2.3l-30.6,0l-7.2,-17.3l-7.2,-17.2l-33.3,-0.2l-33.3,-0.3l-7.3,17.5l-7.4,17.5l-15,0c-11.6,0 -14.9,-0.3 -14.5,-1.3c5.3,-12.6 27.6,-63.9 34,-78.2c19.3,-43 29.5,-66.1 30.1,-68.3c0.7,-2.2 1,-2.3 13.9,-2l13.1,0.3l6.9,15.5z" id="svg_2"/>
   <path d="m1206.6,970.8c-1.5,3.5 -15.8,37.5 -20.3,47.9c-0.4,1 4.5,1.3 22.6,1.3l23.1,0l-1.6,-3.8c-0.8,-2 -5.9,-14.2 -11.2,-27c-5.2,-12.7 -9.8,-23.2 -10.1,-23.2c-0.3,0 -1.5,2.1 -2.5,4.8zm-123.8,-73.1l-17.8,0.3l0,373.1l6.3,-3.5c3.5,-2 11.9,-6.7 18.8,-10.4l12.4,-6.9l0.3,-176.7c0.2,-141 0,-176.6 -1,-176.4c-0.7,0.1 -9.3,0.4 -19,0.5zm-271.1,34c-0.6,1 -33.7,75.9 -51.6,116.9c-7.2,16.5 -13.1,30.4 -13.1,31c0,0.5 5.9,0.9 14.5,0.9l14.6,0l4.3,-10c2.3,-5.5 5.5,-13.3 7.1,-17.3l2.8,-7.2l21.7,0c11.9,0 27,-0.3 33.6,-0.6l11.9,-0.6l7.3,17c4.1,9.4 8,17.6 8.7,18.2c0.8,0.7 6.5,1 15.7,0.8l14.5,-0.3l-7.9,-18c-17.2,-38.8 -42.4,-95.9 -50.1,-113.3l-8,-18.2l-12.8,0c-7,0 -13,0.3 -13.2,0.7zm21.3,53.3c4,9.6 9,21.5 11,26.5l3.7,9l-23,0.3c-12.6,0.1 -23.2,0.1 -23.4,-0.1c-0.2,-0.2 2.9,-7.8 6.8,-16.8s8.9,-20.9 11.1,-26.4c4.6,-11.6 4.8,-11.9 5.8,-10.8c0.4,0.4 4,8.7 8,18.3zm88.2,20.7c0.3,70.5 0.4,74.8 2.1,74.7c0.9,-0.1 7.1,-0.2 13.7,-0.3l12,-0.1l0,-52l4.8,0c2.6,0 8.3,-0.3 12.7,-0.6l8,-0.6l19.4,26.1c10.6,14.3 19.9,26.5 20.6,27.1c0.8,0.7 7.6,0.9 18.3,0.8l17.1,-0.3l-7,-9c-9.7,-12.3 -35.4,-46.7 -35.4,-47.2c0,-0.3 2.3,-1.3 5.2,-2.3c16.2,-5.7 27.5,-19.3 30.5,-36.7c3.4,-20.4 -6.5,-39.9 -24.5,-48.4c-11.3,-5.3 -17.8,-5.9 -59.8,-5.9l-37.9,0l0.2,74.7zm72.9,-48.7c7.8,1.5 13.9,4.9 17.4,9.9c2.8,3.9 3,5 3,12.6c0,7.7 -0.2,8.7 -3,12.7c-2.1,2.8 -5,5.3 -9,7.3l-5.8,3l-23.9,0.3l-23.8,0.3l0,-47.1l19.9,0c10.9,0 22.3,0.5 25.2,1z" id="svg_3"/>
  </g>
 </g>
</svg>