<svg xmlns="http://www.w3.org/2000/svg" version="1.0" viewBox="0 0 2048 2048">
  <path d="M1065 803v63h38l-.2-53.1-.3-53-17.8-10c-9.8-5.4-18.3-9.9-18.8-9.9s-.9 25.1-.9 63zM1128 1005.1c0 219.7.1 231.1 1.8 230.4.9-.3 10-5.3 20.2-11s43.5-24.1 74-41 58.4-32.4 62-34.4l6.5-3.7.3-140.2.2-140.2-3.7-2.3c-2.1-1.3-8.3-4.8-13.8-7.7-10-5.3-36.1-19.8-69.5-38.5-22.7-12.7-77.1-42.5-77.6-42.5-.2 0-.4 104-.4 231.1zm101.3-59.1c3.8 8.5 9.7 22 13.2 30 3.4 8 10.4 23.9 15.5 35.5 12.7 28.8 27.6 63.5 28.4 66.2l.7 2.3h-30.6l-7.2-17.3-7.2-17.2-33.3-.2-33.3-.3-7.3 17.5-7.4 17.5h-15c-11.6 0-14.9-.3-14.5-1.3 5.3-12.6 27.6-63.9 34-78.2 19.3-43 29.5-66.1 30.1-68.3.7-2.2 1-2.3 13.9-2l13.1.3 6.9 15.5z"/>
  <path d="M1206.6 970.8c-1.5 3.5-15.8 37.5-20.3 47.9-.4 1 4.5 1.3 22.6 1.3h23.1l-1.6-3.8c-.8-2-5.9-14.2-11.2-27-5.2-12.7-9.8-23.2-10.1-23.2-.3 0-1.5 2.1-2.5 4.8zM1082.8 897.7l-17.8.3v373.1l6.3-3.5c3.5-2 11.9-6.7 18.8-10.4l12.4-6.9.3-176.7c.2-141 0-176.6-1-176.4-.7.1-9.3.4-19 .5zM811.7 931.7c-.6 1-33.7 75.9-51.6 116.9-7.2 16.5-13.1 30.4-13.1 31 0 .5 5.9.9 14.5.9h14.6l4.3-10c2.3-5.5 5.5-13.3 7.1-17.3l2.8-7.2H812c11.9 0 27-.3 33.6-.6l11.9-.6 7.3 17c4.1 9.4 8 17.6 8.7 18.2.8.7 6.5 1 15.7.8l14.5-.3-7.9-18c-17.2-38.8-42.4-95.9-50.1-113.3l-8-18.2h-12.8c-7 0-13 .3-13.2.7zM833 985c4 9.6 9 21.5 11 26.5l3.7 9-23 .3c-12.6.1-23.2.1-23.4-.1-.2-.2 2.9-7.8 6.8-16.8s8.9-20.9 11.1-26.4c4.6-11.6 4.8-11.9 5.8-10.8.4.4 4 8.7 8 18.3zM921.2 1005.7c.3 70.5.4 74.8 2.1 74.7.9-.1 7.1-.2 13.7-.3l12-.1v-52h4.8c2.6 0 8.3-.3 12.7-.6l8-.6 19.4 26.1c10.6 14.3 19.9 26.5 20.6 27.1.8.7 7.6.9 18.3.8l17.1-.3-7-9c-9.7-12.3-35.4-46.7-35.4-47.2 0-.3 2.3-1.3 5.2-2.3 16.2-5.7 27.5-19.3 30.5-36.7 3.4-20.4-6.5-39.9-24.5-48.4-11.3-5.3-17.8-5.9-59.8-5.9H921l.2 74.7zm72.9-48.7c7.8 1.5 13.9 4.9 17.4 9.9 2.8 3.9 3 5 3 12.6 0 7.7-.2 8.7-3 12.7-2.1 2.8-5 5.3-9 7.3l-5.8 3-23.9.3-23.8.3V956h19.9c10.9 0 22.3.5 25.2 1z"/>
</svg>
